<svg id="Capa_1" enable-background="new 0 0 512.345 512.345" height="512" viewBox="0 0 512.345 512.345" width="512" xmlns="http://www.w3.org/2000/svg"><g><g id="Page-1_14_"><g id="_x30_15---Forex-Dollar-Euro" transform="translate(-1 -1)"><path id="Shape_105_" d="m402.239 227.284v-132.266h16.725c6.834.029 13.038-3.991 15.804-10.24 2.933-6.272 1.889-13.684-2.662-18.901l-50.944-58.667c-3.34-3.664-8.067-5.756-13.025-5.764s-9.692 2.068-13.044 5.722l-50.987 58.709c-4.55 5.219-5.593 12.629-2.662 18.901 2.764 6.251 8.969 10.271 15.804 10.24h16.725v132.267c-71.407 17.287-118.616 85.229-109.912 158.182s70.575 127.879 144.045 127.879 135.34-54.927 144.045-127.879c8.705-72.953-38.505-140.895-109.912-158.183zm-59.733-149.333h-25.387l-.085-.853 51.2-58.718 50.944 58.718-.213.853h-25.259c-4.713 0-8.533 3.821-8.533 8.533v137.626c-11.331-1.456-22.802-1.456-34.133 0v-137.626c-.001-4.712-3.821-8.533-8.534-8.533zm25.6 418.134c-70.692 0-128-57.308-128-128s57.308-128 128-128 128 57.308 128 128c-.08 70.659-57.341 127.92-128 128z"/><path id="Shape_104_" d="m112.106 287.06v132.224h-16.726c-6.835-.031-13.039 3.989-15.804 10.24-2.931 6.272-1.887 13.683 2.662 18.901l50.944 58.667c3.236 3.842 8.001 6.063 13.025 6.071s9.796-2.197 13.045-6.029l50.953-58.709c4.572-5.216 5.63-12.641 2.697-18.927-2.772-6.241-8.975-10.25-15.804-10.214h-16.725v-132.224c71.407-17.287 118.616-85.229 109.912-158.182-8.706-72.951-70.576-127.878-144.046-127.878s-135.34 54.927-144.045 127.879 38.505 140.894 109.912 158.181zm59.733 149.291h25.387l.085.853-51.2 58.718-50.944-58.718.213-.853h25.259c4.713 0 8.533-3.821 8.533-8.533v-137.626c5.663.697 11.361 1.061 17.067 1.092 5.705-.031 11.404-.396 17.067-1.092v137.626c0 4.713 3.82 8.533 8.533 8.533zm-25.6-418.133c70.692 0 128 57.308 128 128s-57.308 128-128 128-128-57.308-128-128c.08-70.659 57.341-127.92 128-128z"/><path id="Shape_103_" d="m112.106 180.351c0-4.713-3.821-8.533-8.533-8.533-4.713 0-8.533 3.821-8.533 8.533 0 21.094 18.492 38.622 42.667 42.027v17.707c0 4.713 3.821 8.533 8.533 8.533s8.533-3.82 8.533-8.533v-17.707c24.175-3.413 42.667-20.932 42.667-42.027s-18.492-38.622-42.667-42.027v-50.926c14.677 2.859 25.6 12.8 25.6 24.687 0 4.713 3.821 8.533 8.533 8.533s8.533-3.821 8.533-8.533c0-21.094-18.492-38.622-42.667-42.027v-17.707c0-4.713-3.821-8.533-8.533-8.533s-8.533 3.821-8.533 8.533v17.707c-24.175 3.413-42.667 20.932-42.667 42.027s18.492 38.622 42.667 42.027v50.927c-14.678-2.86-25.6-12.792-25.6-24.688zm68.266 0c0 11.895-10.923 21.828-25.6 24.687v-49.374c14.678 2.859 25.6 12.792 25.6 24.687zm-68.266-68.267c0-11.895 10.923-21.828 25.6-24.687v49.374c-14.678-2.858-25.6-12.791-25.6-24.687z"/><path id="Shape_102_" d="m368.106 308.351c16.016.291 30.846 8.506 39.586 21.931 1.692 2.615 4.675 4.1 7.782 3.875s5.844-2.126 7.141-4.958.948-6.146-.911-8.645c-11.891-18.058-31.978-29.027-53.598-29.269-30.316 1.18-56.351 21.916-64.282 51.2h-21.052c-4.713 0-8.533 3.82-8.533 8.533s3.82 8.533 8.533 8.533h17.51c-.273 2.807-.444 5.649-.444 8.533s.171 5.726.444 8.533h-17.51c-4.713 0-8.533 3.82-8.533 8.533s3.82 8.533 8.533 8.533h21.052c7.931 29.284 33.966 50.02 64.282 51.2 21.62-.243 41.706-11.212 53.598-29.269 1.859-2.5 2.208-5.813.911-8.645s-4.034-4.732-7.141-4.958-6.089 1.26-7.782 3.875c-8.74 13.425-23.57 21.64-39.586 21.931-20.919-.888-39.2-14.397-46.191-34.133h46.191c4.713 0 8.533-3.82 8.533-8.533s-3.82-8.533-8.533-8.533h-50.62c-.774-5.663-.774-11.404 0-17.067h50.62c4.713 0 8.533-3.82 8.533-8.533s-3.82-8.533-8.533-8.533h-46.191c6.991-19.737 25.272-33.246 46.191-34.134z"/></g></g></g></svg>